<svg width="24" height="25" viewBox="0 0 24 25" fill="none" xmlns="http://www.w3.org/2000/svg">
<path d="M16.5 8.75V6.5C16.5 5.90326 16.2629 5.33097 15.841 4.90901C15.419 4.48705 14.8467 4.25 14.25 4.25H6C5.40326 4.25 4.83097 4.48705 4.40901 4.90901C3.98705 5.33097 3.75 5.90326 3.75 6.5V14.75C3.75 15.3467 3.98705 15.919 4.40901 16.341C4.83097 16.7629 5.40326 17 6 17H8.25M16.5 8.75H18C18.5967 8.75 19.169 8.98705 19.591 9.40901C20.0129 9.83097 20.25 10.4033 20.25 11V18.5C20.25 19.0967 20.0129 19.669 19.591 20.091C19.169 20.5129 18.5967 20.75 18 20.75H10.5C9.90326 20.75 9.33097 20.5129 8.90901 20.091C8.48705 19.669 8.25 19.0967 8.25 18.5V17M16.5 8.75H10.5C9.90326 8.75 9.33097 8.98705 8.90901 9.40901C8.48705 9.83097 8.25 10.4033 8.25 11V17" stroke="#6A74CC" stroke-width="1.5" stroke-linecap="round" stroke-linejoin="round"/>
</svg>
