<svg width="24" height="24" viewBox="0 0 24 24" fill="none" xmlns="http://www.w3.org/2000/svg">
<path fill-rule="evenodd" clip-rule="evenodd" d="M11.943 1.25H12.057C14.366 1.25 16.175 1.25 17.587 1.44C19.031 1.634 20.171 2.04 21.066 2.934C21.961 3.829 22.366 4.969 22.56 6.414C22.75 7.825 22.75 9.634 22.75 11.943V12.057C22.75 14.366 22.75 16.175 22.56 17.587C22.366 19.031 21.96 20.171 21.066 21.066C20.171 21.961 19.031 22.366 17.586 22.56C16.175 22.75 14.366 22.75 12.057 22.75H11.943C9.634 22.75 7.825 22.75 6.413 22.56C4.969 22.366 3.829 21.96 2.934 21.066C2.039 20.171 1.634 19.031 1.44 17.586C1.25 16.175 1.25 14.366 1.25 12.057V11.943C1.25 9.634 1.25 7.825 1.44 6.413C1.634 4.969 2.04 3.829 2.934 2.934C3.829 2.039 4.969 1.634 6.414 1.44C7.825 1.25 9.634 1.25 11.943 1.25ZM6.613 2.926C5.335 3.098 4.564 3.426 3.995 3.995C3.425 4.565 3.098 5.335 2.926 6.614C2.752 7.914 2.75 9.622 2.75 12C2.75 14.378 2.752 16.086 2.926 17.386C3.098 18.665 3.426 19.436 3.995 20.006C4.565 20.575 5.335 20.902 6.614 21.074C7.914 21.248 9.622 21.25 12 21.25C14.378 21.25 16.086 21.248 17.386 21.074C18.665 20.902 19.436 20.574 20.006 20.005C20.575 19.435 20.902 18.665 21.074 17.386C21.248 16.086 21.25 14.378 21.25 12C21.25 9.622 21.248 7.914 21.074 6.614C20.902 5.335 20.574 4.564 20.005 3.994C19.435 3.425 18.665 3.098 17.386 2.926C16.086 2.752 14.378 2.75 12 2.75C9.622 2.75 7.913 2.752 6.613 2.926Z" fill="#6A74CC"/>
<path fill-rule="evenodd" clip-rule="evenodd" d="M16.1587 7.575C16.2227 7.61197 16.2788 7.66118 16.3238 7.71983C16.3687 7.77848 16.4017 7.84541 16.4208 7.9168C16.4399 7.98819 16.4447 8.06264 16.435 8.1359C16.4253 8.20916 16.4013 8.27979 16.3642 8.34375L13.7602 12.849C14.1008 13.2774 14.2735 13.8152 14.2461 14.3618C14.2187 14.9084 13.993 15.4262 13.6113 15.8184C13.2296 16.2106 12.7181 16.4502 12.1724 16.4924C11.6268 16.5346 11.0845 16.3765 10.647 16.0477C10.2096 15.7188 9.90694 15.2419 9.79581 14.706C9.68467 14.1701 9.77265 13.6121 10.0433 13.1365C10.3139 12.6608 10.7486 12.3001 11.266 12.1218C11.7834 11.9435 12.3481 11.96 12.8542 12.168L14.1735 9.8865C13.6683 9.63469 13.1232 9.47253 12.5625 9.40725V9.75C12.5625 9.89919 12.5032 10.0423 12.3977 10.1478C12.2923 10.2532 12.1492 10.3125 12 10.3125C11.8508 10.3125 11.7077 10.2532 11.6023 10.1478C11.4968 10.0423 11.4375 9.89919 11.4375 9.75V9.40725C10.9648 9.46214 10.5026 9.58595 10.0657 9.77475L10.2375 10.0718C10.2744 10.1358 10.2984 10.2064 10.308 10.2797C10.3176 10.353 10.3127 10.4275 10.2936 10.4988C10.2744 10.5702 10.2414 10.6371 10.1964 10.6958C10.1514 10.7544 10.0953 10.8036 10.0312 10.8405C9.96723 10.8774 9.89656 10.9014 9.82328 10.911C9.75 10.9206 9.67554 10.9157 9.60416 10.8966C9.53277 10.8774 9.46586 10.8444 9.40724 10.7994C9.34861 10.7544 9.29943 10.6983 9.2625 10.6343L9.0915 10.3373C8.70947 10.6214 8.37112 10.96 8.08725 11.3423L8.38425 11.5125C8.51354 11.5871 8.60791 11.71 8.64659 11.8542C8.68527 11.9983 8.66509 12.152 8.5905 12.2813C8.55356 12.3453 8.50438 12.4014 8.44576 12.4464C8.38714 12.4914 8.32022 12.5244 8.24884 12.5436C8.10467 12.5823 7.95104 12.5621 7.82175 12.4875L7.52475 12.3158C7.32842 12.7703 7.20247 13.2521 7.15125 13.7445C7.13583 13.8929 7.0621 14.0291 6.94627 14.1231C6.83045 14.2171 6.68201 14.2613 6.53362 14.2459C6.38524 14.2305 6.24905 14.1567 6.15502 14.0409C6.061 13.9251 6.01683 13.7766 6.03225 13.6283C6.13317 12.6583 6.46901 11.7275 7.01069 10.9165C7.55238 10.1055 8.28358 9.43883 9.14098 8.97412C9.99838 8.50941 10.9561 8.2607 11.9313 8.24953C12.9065 8.23836 13.8697 8.46506 14.7375 8.91L15.39 7.7805C15.427 7.71652 15.4762 7.66044 15.5348 7.61548C15.5935 7.57052 15.6604 7.53755 15.7318 7.51847C15.8032 7.49939 15.8776 7.49456 15.9509 7.50426C16.0242 7.51396 16.0948 7.538 16.1587 7.575ZM16.0785 10.6103C16.1994 10.5229 16.3501 10.4873 16.4974 10.511C16.6446 10.5348 16.7764 10.6161 16.8637 10.737C17.6442 11.8175 18.0427 13.1272 17.9962 14.4593C17.9945 14.5336 17.978 14.607 17.9478 14.6749C17.9175 14.7429 17.8741 14.8042 17.82 14.8553C17.7659 14.9064 17.7021 14.9462 17.6325 14.9725C17.5629 14.9987 17.4888 15.0109 17.4144 15.0084C17.34 15.0058 17.2669 14.9885 17.1993 14.9574C17.1317 14.9264 17.0709 14.8822 17.0204 14.8275C16.97 14.7729 16.9309 14.7087 16.9054 14.6388C16.8799 14.5689 16.8686 14.4946 16.872 14.4203C16.9098 13.3378 16.586 12.2735 15.9517 11.3955C15.9086 11.3356 15.8776 11.2677 15.8606 11.1958C15.8437 11.1239 15.841 11.0494 15.8529 10.9765C15.8647 10.9036 15.8908 10.8337 15.9296 10.7708C15.9685 10.708 16.0193 10.6534 16.0792 10.6103H16.0785ZM13.125 14.25C13.125 14.5484 13.0065 14.8345 12.7955 15.0455C12.5845 15.2565 12.2984 15.375 12 15.375C11.7016 15.375 11.4155 15.2565 11.2045 15.0455C10.9935 14.8345 10.875 14.5484 10.875 14.25C10.875 13.9516 10.9935 13.6655 11.2045 13.4545C11.4155 13.2435 11.7016 13.125 12 13.125C12.2984 13.125 12.5845 13.2435 12.7955 13.4545C13.0065 13.6655 13.125 13.9516 13.125 14.25Z" fill="#6A74CC"/>
</svg>
