<svg width="26" height="14" viewBox="0 0 26 14" fill="none" xmlns="http://www.w3.org/2000/svg">
<path fill-rule="evenodd" clip-rule="evenodd" d="M13.795 13.42C13.5841 13.6307 13.2981 13.749 13 13.749C12.7019 13.749 12.416 13.6307 12.205 13.42L0.955014 2.17C0.756294 1.95674 0.648109 1.67467 0.653251 1.38322C0.658394 1.09177 0.776462 0.813688 0.982581 0.607568C1.1887 0.401449 1.46678 0.283381 1.75823 0.278239C2.04968 0.273097 2.33175 0.381281 2.54501 0.580001L13 11.035L23.455 0.580001C23.558 0.469471 23.6822 0.380818 23.8202 0.31933C23.9582 0.257842 24.1072 0.224779 24.2582 0.222114C24.4093 0.219449 24.5593 0.247236 24.6994 0.303817C24.8395 0.360399 24.9667 0.444616 25.0736 0.551444C25.1804 0.658272 25.2646 0.785522 25.3212 0.925605C25.3778 1.06569 25.4056 1.21573 25.4029 1.36678C25.4002 1.51784 25.3672 1.66681 25.3057 1.80481C25.2442 1.94281 25.1555 2.06701 25.045 2.17L13.795 13.42Z" fill="#6A74CC"/>
</svg>
