<svg width="24" height="24" viewBox="0 0 24 24" fill="none" xmlns="http://www.w3.org/2000/svg">
<path d="M5.05711 8.64568L4.19906 9.5H5.4099H16.9999C17.1325 9.5 17.2597 9.55268 17.3534 9.64645C17.4472 9.74022 17.4999 9.86739 17.4999 10C17.4999 10.1326 17.4472 10.2598 17.3534 10.3536C17.2597 10.4473 17.1325 10.5 16.9999 10.5H3.00136C2.90301 10.4993 2.80704 10.4696 2.72546 10.4146C2.6436 10.3595 2.5799 10.2813 2.54239 10.19L2.54241 10.19L2.5408 10.1862C2.50251 10.0951 2.49205 9.99477 2.51074 9.89778C2.52934 9.80123 2.57599 9.71232 2.64485 9.64215L6.64345 5.64356L6.2899 5.29L6.64345 5.64356C6.73798 5.54902 6.8662 5.49591 6.9999 5.49591C7.13359 5.49591 7.26181 5.54902 7.35634 5.64356C7.45088 5.73809 7.50399 5.86631 7.50399 6C7.50399 6.13355 7.45099 6.26164 7.35664 6.35615C7.35654 6.35625 7.35644 6.35635 7.35634 6.35645L5.05711 8.64568ZM21.4574 13.81L21.4574 13.81L21.459 13.8138C21.4973 13.9049 21.5077 14.0052 21.4891 14.1022C21.4705 14.1988 21.4238 14.2877 21.355 14.3578C21.3547 14.3581 21.3543 14.3585 21.354 14.3588L17.3563 18.3564L17.3549 18.3579C17.3084 18.4048 17.2531 18.442 17.1922 18.4673C17.1313 18.4927 17.0659 18.5058 16.9999 18.5058C16.9339 18.5058 16.8685 18.4927 16.8076 18.4673C16.7467 18.442 16.6914 18.4048 16.6449 18.3579L16.642 18.355C16.5951 18.3085 16.5579 18.2532 16.5325 18.1923C16.5072 18.1314 16.4941 18.066 16.4941 18C16.4941 17.934 16.5072 17.8686 16.5325 17.8077C16.5579 17.7468 16.5951 17.6915 16.642 17.645L16.6427 17.6443L18.9427 15.3543L19.8007 14.5H18.5899H6.9999C6.86729 14.5 6.74011 14.4473 6.64634 14.3536C6.55257 14.2598 6.4999 14.1326 6.4999 14C6.4999 13.8674 6.55257 13.7402 6.64634 13.6465C6.74011 13.5527 6.86729 13.5 6.9999 13.5H20.9985C21.0968 13.5007 21.1928 13.5304 21.2743 13.5854C21.3562 13.6405 21.4199 13.7187 21.4574 13.81Z" stroke="#34395C"/>
</svg>
