<svg width="24" height="24" viewBox="0 0 24 24" fill="none" xmlns="http://www.w3.org/2000/svg">
<path fill-rule="evenodd" clip-rule="evenodd" d="M5.07901 5.069C8.87401 1.279 15.044 1.319 18.862 5.138C22.682 8.958 22.722 15.131 18.926 18.926C15.131 22.721 8.95801 22.682 5.13801 18.862C4.06351 17.7919 3.25166 16.4874 2.76618 15.0507C2.28071 13.6141 2.13484 12.0845 2.34001 10.582C2.36693 10.3848 2.47108 10.2064 2.62955 10.086C2.78802 9.9656 2.98782 9.91308 3.18501 9.94C3.3822 9.96692 3.56062 10.0711 3.68101 10.2295C3.80141 10.388 3.85393 10.5878 3.82701 10.785C3.65285 12.0583 3.77632 13.3547 4.18772 14.5722C4.59911 15.7897 5.28723 16.8953 6.19801 17.802C9.44301 21.046 14.666 21.065 17.866 17.866C21.065 14.666 21.046 9.443 17.802 6.198C14.559 2.956 9.33901 2.935 6.13901 6.13L6.88701 6.133C6.9855 6.13346 7.08294 6.15331 7.17376 6.19143C7.26457 6.22955 7.347 6.28518 7.41631 6.35515C7.48563 6.42511 7.54049 6.50805 7.57776 6.59922C7.61503 6.69039 7.63397 6.78801 7.63351 6.8865C7.63305 6.98499 7.6132 7.08243 7.57508 7.17325C7.53696 7.26407 7.48133 7.34649 7.41136 7.41581C7.3414 7.48512 7.25846 7.53998 7.16729 7.57725C7.07612 7.61452 6.9785 7.63346 6.88001 7.633L4.33401 7.621C4.13631 7.61995 3.94702 7.54088 3.80732 7.40099C3.66762 7.2611 3.5888 7.0717 3.58801 6.874L3.57501 4.33C3.57448 4.23151 3.59336 4.13388 3.63057 4.04268C3.66778 3.95149 3.72258 3.86851 3.79185 3.7985C3.86112 3.72848 3.94351 3.6728 4.0343 3.63462C4.12509 3.59645 4.22252 3.57653 4.32101 3.576C4.4195 3.57548 4.51713 3.59435 4.60833 3.63156C4.69952 3.66877 4.7825 3.72357 4.85251 3.79284C4.92253 3.86211 4.97821 3.9445 5.01639 4.03529C5.05456 4.12609 5.07448 4.22351 5.07501 4.322L5.07901 5.069ZM11.999 7.249C12.1979 7.249 12.3887 7.32802 12.5293 7.46867C12.67 7.60932 12.749 7.80009 12.749 7.999V11.689L15.03 13.969C15.1017 14.0382 15.1588 14.1209 15.1982 14.2124C15.2375 14.3039 15.2583 14.4023 15.2592 14.5018C15.2601 14.6014 15.2412 14.7002 15.2035 14.7924C15.1658 14.8846 15.1102 14.9683 15.0398 15.0388C14.9694 15.1092 14.8857 15.165 14.7936 15.2027C14.7014 15.2405 14.6026 15.2595 14.5031 15.2587C14.4035 15.2579 14.3051 15.2372 14.2135 15.198C14.122 15.1587 14.0392 15.1016 13.97 15.03L11.25 12.31V8C11.25 7.80109 11.329 7.61032 11.4697 7.46967C11.6103 7.32902 11.8011 7.25 12 7.25" fill="#34395C"/>
</svg>
